<?xml version="1.0" encoding="utf-8"?>
<!-- Generator: Adobe Illustrator 18.1.1, SVG Export Plug-In . SVG Version: 6.00 Build 0)  -->
<svg version="1.1" id="Layer_1" xmlns="http://www.w3.org/2000/svg" xmlns:xlink="http://www.w3.org/1999/xlink" x="0px" y="0px"
	 viewBox="0 0 595.3 141.7" enable-background="new 0 0 595.3 141.7" xml:space="preserve">
<g>
	<polyline fill="#FFFFFF" points="57.6,99.3 40.8,126.7 6.5,70.9 40.8,15.1 40.8,17.8 8.2,70.9 40.8,123.9 55.9,99.3 	"/>
	<polygon fill="#FFFFFF" points="57.5,34.1 57.5,46.8 44.9,46.8 44.9,48 57.5,48 57.5,60.7 58.8,60.7 58.8,48 71.4,48 71.4,46.8 
		58.8,46.8 58.8,34.1 	"/>
</g>
<g>
	<path fill="#FFFFFF" d="M147.3,45.1c0,4.4-0.6,8.4-1.9,11.8c-1.3,3.5-3,6.4-5.3,8.8c-2.3,2.4-5,4.2-8.2,5.5
		c-3.2,1.3-6.7,1.9-10.5,1.9h-20v-56h20c3.8,0,7.3,0.6,10.5,1.9c3.2,1.3,5.9,3.1,8.2,5.5c2.3,2.4,4.1,5.3,5.3,8.8
		C146.6,36.7,147.3,40.6,147.3,45.1z M146.2,45.1c0-4.3-0.6-8.2-1.8-11.6c-1.2-3.4-2.9-6.2-5.1-8.5c-2.2-2.3-4.8-4.1-7.9-5.3
		c-3.1-1.2-6.4-1.8-10.1-1.8h-19v54.4h19c3.7,0,7-0.6,10.1-1.8c3.1-1.2,5.7-3,7.9-5.3c2.2-2.3,3.9-5.2,5.1-8.5
		C145.6,53.3,146.2,49.4,146.2,45.1z"/>
	<path fill="#FFFFFF" d="M161.6,73.1h-0.7V33.8h0.7V73.1z"/>
	<path fill="#FFFFFF" d="M203.2,73.1h-0.5c-0.2,0-0.3-0.1-0.3-0.3l-5.5-13.1h-20.7l-5.5,13.1c-0.1,0.2-0.2,0.3-0.4,0.3H170
		l16.4-39.2h0.6L203.2,73.1z M176.5,59.1h20.2L187,35.9c-0.1-0.2-0.2-0.4-0.2-0.6c-0.1-0.2-0.1-0.4-0.2-0.6
		c-0.1,0.2-0.1,0.4-0.2,0.6c-0.1,0.2-0.1,0.4-0.2,0.6L176.5,59.1z"/>
	<path fill="#FFFFFF" d="M228.9,64.1c0.1,0.1,0.1,0.2,0.2,0.3c0,0.1,0.1,0.2,0.2,0.3c0.1-0.1,0.1-0.2,0.2-0.3c0-0.1,0.1-0.2,0.2-0.3
		l17.2-30c0.1-0.1,0.2-0.2,0.4-0.2h0.2v39.2h-0.6V35.6c0-0.1,0-0.2,0-0.3c0-0.1,0-0.2,0-0.3l-17.2,29.9c-0.1,0.2-0.3,0.3-0.4,0.3
		h-0.2c-0.1,0-0.3-0.1-0.4-0.3L211,35.1c0,0.1,0,0.2,0,0.3s0,0.2,0,0.3v37.5h-0.6V33.8h0.2c0.2,0,0.3,0.1,0.4,0.2L228.9,64.1z"/>
	<path fill="#FFFFFF" d="M294.5,53.4c0,3.1-0.4,5.9-1.3,8.3c-0.9,2.5-2.1,4.6-3.7,6.3c-1.6,1.7-3.5,3.1-5.7,4
		c-2.2,0.9-4.7,1.4-7.4,1.4c-2.7,0-5.1-0.5-7.3-1.4c-2.2-0.9-4.1-2.2-5.7-4c-1.6-1.7-2.8-3.8-3.7-6.3c-0.9-2.5-1.3-5.2-1.3-8.3
		c0-3.1,0.4-5.9,1.3-8.3c0.9-2.5,2.1-4.6,3.7-6.3c1.6-1.7,3.5-3.1,5.7-4c2.2-0.9,4.7-1.4,7.3-1.4c2.7,0,5.1,0.5,7.4,1.4
		c2.2,0.9,4.1,2.3,5.7,4c1.6,1.7,2.8,3.8,3.7,6.3C294.1,47.6,294.5,50.4,294.5,53.4z M293.8,53.4c0-3-0.4-5.8-1.3-8.2
		c-0.8-2.4-2-4.5-3.6-6.1c-1.5-1.7-3.4-3-5.5-3.8c-2.1-0.9-4.5-1.3-7.1-1.3c-2.5,0-4.9,0.4-7,1.3s-4,2.2-5.5,3.8
		c-1.5,1.7-2.7,3.7-3.6,6.1c-0.9,2.4-1.3,5.1-1.3,8.2c0,3,0.4,5.8,1.3,8.2c0.9,2.4,2.1,4.4,3.6,6.1c1.5,1.7,3.4,2.9,5.5,3.8
		c2.1,0.9,4.5,1.3,7,1.3c2.6,0,4.9-0.4,7.1-1.3c2.1-0.9,4-2.2,5.5-3.8c1.5-1.7,2.7-3.7,3.6-6.1C293.4,59.2,293.8,56.5,293.8,53.4z"
		/>
	<path fill="#FFFFFF" d="M306.1,34.1l27.7,37.8c0-0.1,0-0.2,0-0.3c0-0.1,0-0.2,0-0.3V33.8h0.6v39.2h-0.2c-0.1,0-0.2-0.1-0.3-0.2
		L306,34.9c0,0.1,0,0.2,0,0.4c0,0.1,0,0.2,0,0.3v37.5h-0.6V33.8h0.2C305.9,33.8,306,33.9,306.1,34.1z"/>
	<path fill="#FFFFFF" d="M379.9,53.4c0,3.1-0.4,5.9-1.3,8.3c-0.9,2.4-2.1,4.5-3.7,6.2c-1.6,1.7-3.5,3-5.7,3.8
		c-2.2,0.9-4.7,1.3-7.4,1.3h-14V33.8h14c2.7,0,5.1,0.4,7.4,1.3c2.2,0.9,4.1,2.2,5.7,3.8c1.6,1.7,2.8,3.7,3.7,6.2
		C379.5,47.6,379.9,50.4,379.9,53.4z M379.2,53.4c0-3-0.4-5.7-1.3-8.1c-0.8-2.4-2-4.4-3.6-6s-3.4-2.9-5.5-3.7
		c-2.1-0.8-4.5-1.3-7.1-1.3h-13.3v38.1h13.3c2.6,0,4.9-0.4,7.1-1.3c2.1-0.8,4-2.1,5.5-3.7s2.7-3.6,3.6-6
		C378.8,59.2,379.2,56.5,379.2,53.4z"/>
	<path fill="#FFFFFF" d="M434.7,22.2c-0.1,0.2-0.3,0.2-0.4,0.2c-0.2,0-0.6-0.3-1.1-0.8c-0.5-0.5-1.2-1.1-2.2-1.8
		c-0.9-0.6-2.2-1.2-3.7-1.8c-1.5-0.5-3.4-0.8-5.6-0.8c-2.3,0-4.3,0.4-6.1,1.1s-3.3,1.6-4.5,2.8c-1.2,1.2-2.1,2.5-2.7,4.1
		c-0.6,1.5-0.9,3.2-0.9,4.8c0,2.2,0.4,4,1.3,5.4s1.9,2.7,3.3,3.6c1.4,1,2.9,1.8,4.7,2.5c1.8,0.7,3.5,1.3,5.4,1.9
		c1.8,0.6,3.6,1.2,5.4,1.9s3.3,1.5,4.7,2.5c1.4,1,2.5,2.3,3.3,3.8c0.8,1.5,1.3,3.4,1.3,5.7c0,2.3-0.4,4.4-1.2,6.4
		c-0.8,2-1.9,3.7-3.4,5.2s-3.3,2.6-5.4,3.5c-2.1,0.9-4.6,1.3-7.3,1.3c-1.9,0-3.6-0.2-5.1-0.5c-1.5-0.3-2.9-0.8-4.1-1.4
		c-1.2-0.6-2.4-1.4-3.4-2.3c-1-0.9-2-1.9-3-3.1l0.2-0.2c0.1-0.1,0.1-0.1,0.2-0.2s0.1-0.1,0.3-0.1c0.2,0,0.4,0.2,0.7,0.5
		c0.3,0.3,0.7,0.8,1.3,1.3c0.5,0.5,1.2,1.1,1.9,1.7c0.7,0.6,1.7,1.1,2.7,1.7s2.3,0.9,3.7,1.3c1.4,0.3,2.9,0.5,4.7,0.5
		c2.6,0,4.9-0.4,6.9-1.2c2-0.8,3.7-1.9,5.1-3.3c1.4-1.4,2.5-3,3.2-4.9c0.7-1.9,1.1-3.9,1.1-6c0-1.8-0.3-3.3-0.8-4.6
		c-0.5-1.3-1.3-2.4-2.2-3.3c-0.9-0.9-2-1.7-3.3-2.4c-1.2-0.7-2.6-1.2-4-1.8c-1.4-0.5-2.9-1-4.3-1.4s-2.9-0.9-4.3-1.5
		c-1.4-0.5-2.7-1.1-4-1.8c-1.2-0.7-2.3-1.5-3.3-2.5c-0.9-1-1.7-2.1-2.2-3.5s-0.8-2.9-0.8-4.8c0-1.8,0.3-3.5,1-5.1
		c0.7-1.6,1.6-3.1,2.9-4.3c1.3-1.3,2.9-2.3,4.7-3c1.9-0.7,4-1.1,6.5-1.1c2.7,0,5.1,0.4,7.2,1.3c2.1,0.9,4.1,2.3,5.9,4.2L434.7,22.2z
		"/>
	<path fill="#FFFFFF" d="M476.7,67.8c0.1,0,0.1,0,0.2,0.1l0.3,0.2c-0.8,0.8-1.7,1.5-2.6,2.2c-0.9,0.7-2,1.2-3.1,1.7
		s-2.4,0.8-3.7,1.1s-2.8,0.4-4.5,0.4c-2.6,0-5.1-0.5-7.3-1.4c-2.2-0.9-4.1-2.3-5.8-4c-1.6-1.7-2.9-3.8-3.8-6.3
		c-0.9-2.5-1.4-5.3-1.4-8.4c0-3,0.5-5.7,1.4-8.2c0.9-2.5,2.2-4.6,3.8-6.3c1.7-1.8,3.6-3.1,5.9-4.1c2.3-1,4.8-1.4,7.6-1.4
		c1.4,0,2.7,0.1,3.8,0.3c1.1,0.2,2.2,0.5,3.2,0.9c1,0.4,1.9,0.9,2.8,1.4s1.8,1.3,2.7,2l-0.1,0.1c-0.1,0.1-0.2,0.1-0.3,0.1
		c-0.1,0-0.4-0.1-0.6-0.3c-0.3-0.2-0.6-0.5-1-0.8s-0.9-0.7-1.6-1c-0.6-0.4-1.4-0.7-2.2-1c-0.9-0.3-1.9-0.6-3-0.8
		c-1.1-0.2-2.4-0.3-3.8-0.3c-2.7,0-5.1,0.5-7.3,1.4c-2.2,0.9-4.1,2.2-5.7,3.9c-1.6,1.7-2.8,3.7-3.7,6.1c-0.9,2.4-1.3,5.1-1.3,8.1
		c0,3,0.4,5.8,1.3,8.2c0.9,2.4,2.1,4.5,3.7,6.1s3.4,3,5.6,3.9s4.5,1.3,7,1.3c1.6,0,3-0.1,4.3-0.3c1.3-0.2,2.4-0.6,3.4-1
		c1-0.4,2-1,2.9-1.6s1.8-1.3,2.6-2.1C476.5,67.8,476.6,67.8,476.7,67.8z"/>
	<path fill="#FFFFFF" d="M521.4,53.4c0,3.1-0.4,5.9-1.3,8.3c-0.9,2.5-2.1,4.6-3.7,6.3c-1.6,1.7-3.5,3.1-5.7,4
		c-2.2,0.9-4.7,1.4-7.4,1.4c-2.7,0-5.1-0.5-7.3-1.4c-2.2-0.9-4.1-2.2-5.7-4c-1.6-1.7-2.8-3.8-3.7-6.3c-0.9-2.5-1.3-5.2-1.3-8.3
		c0-3.1,0.4-5.9,1.3-8.3c0.9-2.5,2.1-4.6,3.7-6.3c1.6-1.7,3.5-3.1,5.7-4c2.2-0.9,4.7-1.4,7.3-1.4c2.7,0,5.1,0.5,7.4,1.4
		c2.2,0.9,4.1,2.3,5.7,4s2.8,3.8,3.7,6.3C521,47.6,521.4,50.4,521.4,53.4z M520.7,53.4c0-3-0.4-5.8-1.3-8.2c-0.8-2.4-2-4.5-3.6-6.1
		c-1.5-1.7-3.4-3-5.5-3.8c-2.1-0.9-4.5-1.3-7.1-1.3c-2.5,0-4.9,0.4-7,1.3s-4,2.2-5.5,3.8c-1.5,1.7-2.7,3.7-3.6,6.1
		c-0.9,2.4-1.3,5.1-1.3,8.2c0,3,0.4,5.8,1.3,8.2c0.9,2.4,2.1,4.4,3.6,6.1c1.5,1.7,3.4,2.9,5.5,3.8c2.1,0.9,4.5,1.3,7,1.3
		c2.6,0,4.9-0.4,7.1-1.3c2.1-0.9,4-2.2,5.5-3.8c1.5-1.7,2.7-3.7,3.6-6.1C520.2,59.2,520.7,56.5,520.7,53.4z"/>
	<path fill="#FFFFFF" d="M534.1,56.3v16.8h-0.7V33.8h8.8c4.3,0,7.6,0.9,9.8,2.8c2.3,1.8,3.4,4.7,3.4,8.4c0,1.6-0.3,3.1-1,4.5
		c-0.6,1.4-1.6,2.6-2.7,3.5c-1.2,1-2.6,1.8-4.2,2.3s-3.4,0.8-5.4,0.8H534.1z M534.1,55.7h8.2c1.9,0,3.7-0.3,5.2-0.8
		c1.5-0.6,2.9-1.3,4-2.3c1.1-1,1.9-2.1,2.5-3.4s0.9-2.7,0.9-4.2c0-3.5-1-6.1-3.2-7.9c-2.1-1.8-5.3-2.7-9.4-2.7h-8.2V55.7z"/>
	<path fill="#FFFFFF" d="M587.6,33.8v0.6h-22.2v18.4h18.9v0.6h-18.9v19h22.3l-0.1,0.6h-22.9V33.8H587.6z"/>
</g>
<g>
	<path fill="#FFFFFF" d="M180.1,116.1l15.2-33.7c0.3-0.7,0.5-1.4,0.5-2c0-0.8-0.5-1.2-1.6-1.2c-1.9,0-3.4,0.9-4.4,2.7
		c-1,1.8-1.6,3.8-1.6,6c0,0.4,0,0.9,0.1,1.5c-0.8,0-1.5-0.4-1.9-1.2c-0.4-0.8-0.6-1.7-0.6-2.7c0-2,1-3.9,3-5.6
		c2-1.7,4.1-2.5,6.3-2.5c1.6,0,2.9,0.8,3.6,2.3c0.8,1.5,1.2,4.3,1.2,8.5c0,2.3-0.2,5.7-0.5,10.2c-0.3,4.6-0.5,7.4-0.5,8.7
		c0.8-2.9,2.2-6.5,4.3-10.7c2.1-4.2,3.9-7.6,5.4-10.1c1.5-2.5,2.9-4.6,4-6.3c0.4-0.5,0.6-0.9,0.8-1.1c0.2-0.2,0.4-0.4,0.7-0.6
		c0.3-0.2,0.6-0.3,0.9-0.3c0.4,0,1,0.1,1.5,0.3c-0.8,1.9-1.5,4.2-2.2,6.7c-0.8,4.3-1.7,9.1-2.8,14.5c-1,5.4-1.6,9.6-1.6,12.6
		c0,0.5,0,1,0.1,1.3s0.1,0.6,0.1,0.8c0,0.2,0.1,0.5,0.2,0.8c0.1,0.4,0.2,0.7,0.3,1c-1.6,0-2.7-0.4-3.2-1.2c-0.5-0.8-0.8-2.2-0.8-4.2
		c0-2.4,0.3-5.2,1-8.3c0.7-3.1,1.3-5.8,1.7-8l2.1-9.6c-2.1,2.6-4.4,6.8-7,12.6c-2.6,5.8-4.6,10.6-5.9,14.3c-0.3,0.1-0.6,0.2-0.7,0.2
		c-0.8,0-1.3-0.5-1.6-1.4c-0.3-0.9-0.5-2.4-0.5-4.4c0-1.8,0.1-5.2,0.4-10.3c0.3-5.1,0.4-8.5,0.4-10.1c0-0.9,0-1.8-0.1-2.7l-3.2,7.4
		l-2.6,6.4l-2.2,5.3l-1.9,4.5l-1.6,3.5c-0.6,1.2-1,2.1-1.4,2.7c-0.4,0.7-0.8,1.3-1.2,1.8c-0.4,0.5-0.8,0.9-1.2,1.1
		C180.9,116,180.5,116.1,180.1,116.1z"/>
	<path fill="#FFFFFF" d="M215.1,110.2c0-1.9,0.7-4,2-6.3c1.3-2.3,3-4.3,5.1-6c2.1-1.7,4.1-2.5,6.1-2.5c1.3,0,2.3,0.3,3.1,1
		c0.8,0.7,1.3,1.6,1.3,2.6c0,1.4-0.8,2.1-2.4,2.1c0.2-0.6,0.2-1.1,0.2-1.7c0-1.8-0.8-2.7-2.4-2.7c-1.4,0-2.9,0.8-4.5,2.4
		c-1.6,1.6-2.9,3.5-3.9,5.6c-1,2.1-1.5,4-1.5,5.5c0,1.2,0.4,1.9,1.3,1.9c0.6,0,1.2-0.3,2-0.8c0.8-0.5,1.5-1.2,2.1-1.8
		c0.6-0.7,1.4-1.6,2.3-2.7c0.9-1.1,1.5-2,1.9-2.6l1.7-2.5c1.3,0.2,1.9,0.6,1.9,1.2c0,0.3-0.5,1.2-1.4,2.9c-0.9,1.7-1.4,2.9-1.4,3.8
		c0,0.5,0.1,1,0.4,1.5c0.3,0.4,0.7,0.6,1.3,0.6c0.9,0,2.1-0.7,3.5-2s2.8-3.2,4.2-5.6l0.5,0.5c-1,2.5-2.4,4.6-4.2,6.2
		c-1.8,1.6-3.6,2.4-5.3,2.4c-1.1,0-2-0.3-2.5-1c-0.6-0.6-0.9-1.4-0.9-2.3c0-0.4,0-0.8,0.1-1.4c-1.4,1.9-2.7,3.3-3.9,4.2
		c-1.1,0.9-2.3,1.3-3.4,1.3c-1.1,0-1.9-0.3-2.6-1C215.5,112.4,215.1,111.4,215.1,110.2z"/>
	<path fill="#FFFFFF" d="M236.4,108c0-0.9,0.1-1.6,0.4-2.2c0.3-0.6,0.6-1,1-1.2c0.4-0.2,0.7-0.4,1.1-0.6c0.4-0.2,0.6-0.3,0.7-0.4
		c2-2.2,3.6-4.6,4.7-7v-0.6c0-1.1,0.2-1.9,0.6-2.4c0.4-0.5,0.8-0.8,1.3-0.8s0.8,0.2,0.8,0.6c0,0.1,0,0.3-0.1,0.8
		c-0.1,0.4-0.1,0.9-0.1,1.3c0,1,0.4,2.7,1.2,5.3c0.8,2.6,1.2,4.7,1.2,6.2c0,0.9-0.1,1.6-0.3,2.4c2.4-0.4,4.4-2.2,6-5.4l0.4,0.5
		c-1.1,3.3-3.4,5.2-6.7,5.7c-1,2.7-3,4-6.1,4c-2.1,0-3.7-0.6-4.7-1.9S236.4,109.7,236.4,108z M238.7,108c0,1.2,0.4,2.3,1.1,3.2
		c0.7,0.9,1.7,1.4,2.8,1.4c1.5,0,2.5-0.8,3-2.4c-1.3-0.3-2.4-0.8-3.5-1.5s-1.8-1.6-2.4-2.5C239.1,106.3,238.7,106.9,238.7,108z
		 M240,104.8c1.2,2.5,3.1,4.1,5.9,4.7c0.1-0.8,0.2-1.6,0.2-2.3c0-0.9-0.1-1.8-0.2-2.8c-0.2-1-0.4-2.1-0.7-3.3
		c-0.3-1.2-0.5-2.1-0.6-2.6C243,101.3,241.4,103.4,240,104.8z"/>
	<path fill="#FFFFFF" d="M253.7,109.3c0-2.8,0.9-6.6,2.8-11.6c-0.8-0.1-1.3-0.3-1.7-0.4v-0.9c1.2,0.1,1.9,0.2,2.1,0.2
		c1.4-3.6,2.9-6.8,4.5-9.5c1.6-2.7,2.9-4,3.8-4c0.3,0,0.5,0.1,0.7,0.3c0.2,0.2,0.3,0.4,0.3,0.8c0,0.5-0.3,1.3-0.9,2.5
		c-0.6,1.2-1.5,2.8-2.6,4.8c-1.1,2-2.1,3.8-2.8,5.3h1.8c2.7,0,4.9-0.1,6.9-0.3v0.9c-3.4,0.4-6.1,0.6-8.2,0.6c-0.1,0-0.2,0-0.2,0
		h-0.7c-1.8,4-2.6,7.5-2.6,10.4c0,1.4,0.2,2.4,0.6,3c0.4,0.6,1.1,0.9,2.1,0.9c1.6,0,3.2-0.7,4.8-2.2c1.6-1.5,3-3.5,4.3-6l0.6,0.5
		c-1.2,2.8-2.8,5.1-4.8,6.8s-4.1,2.7-6.3,2.7C255.1,114.1,253.7,112.5,253.7,109.3z"/>
	<path fill="#FFFFFF" d="M266.9,108.4c0-2.9,1.3-6,4-9.1c2.7-3.1,5.4-4.7,8.2-4.7c2,0,3,1,3,2.9c0,2.3-1.2,4.4-3.7,6.2
		c-2.5,1.8-5.2,2.8-8.1,3.1c-0.1,0.5-0.2,1.1-0.2,1.7c0,2.7,1.3,4,3.8,4c2,0,3.9-0.8,5.9-2.4c2-1.6,3.6-3.6,4.8-6l0.6,0.4
		c-1.3,2.8-3.1,5.1-5.3,6.8s-4.6,2.6-7,2.6c-1.9,0-3.4-0.5-4.4-1.5C267.4,111.4,266.9,110,266.9,108.4z M270.4,105.9
		c2.2-0.8,4.4-2,6.4-3.6c2.1-1.6,3.1-3.3,3.1-5.1c0-0.7-0.3-1.1-1-1.1c-1.5,0-3.1,1-4.9,3.1C272.3,101.3,271.1,103.6,270.4,105.9z"
		/>
	<path fill="#FFFFFF" d="M283.6,105.7c1.5-3,2.8-6,3.9-9.1c-0.4-0.3-0.5-0.7-0.5-1.2c0-0.9,0.2-1.6,0.7-2.3c0.5-0.7,0.9-1,1.3-1
		c0.4,0,0.7,0.4,0.7,1.2c0,0.1-0.1,0.4-0.2,0.9s-0.2,0.8-0.2,0.8c0,0.4,0.3,0.8,0.8,1.2c0.5,0.4,1.1,0.8,1.7,1.2
		c0.6,0.4,1.2,1,1.7,1.7c0.5,0.8,0.8,1.6,0.8,2.5c0,1.1-0.4,2.5-1.2,4.4c-0.8,1.9-1.2,3.1-1.2,3.7c0,1,0.5,1.4,1.5,1.4
		c1.4,0,3-0.8,4.6-2.4c1.7-1.6,2.9-3.2,3.5-4.8l0.6,0.5c-1,2.2-2.4,4.2-4.3,5.9c-1.9,1.7-3.8,2.6-5.7,2.6c-1.1,0-1.9-0.3-2.6-0.9
		s-0.9-1.4-0.9-2.3c0-1,0.4-2.5,1.3-4.6s1.3-3.6,1.3-4.4c0-0.3,0-0.6-0.1-0.9c-0.1-0.3-0.2-0.5-0.3-0.7c-0.1-0.2-0.2-0.4-0.5-0.6
		l-0.5-0.5c-0.1-0.1-0.3-0.3-0.6-0.5c-0.3-0.2-0.5-0.4-0.6-0.4c-1.6,3.8-3,6.9-4.4,9.2L283.6,105.7z"/>
	<path fill="#FFFFFF" d="M312.5,109.3c0-2.7,1-6.8,3-12.2c-0.3,0-0.6-0.1-1-0.3c-0.4-0.2-0.7-0.3-0.7-0.3v-0.9
		c0.1,0,0.4,0.1,0.9,0.2c0.5,0.1,0.9,0.2,1.2,0.3c1.4-3.6,2.9-6.7,4.4-9.1c1.5-2.5,2.8-3.7,3.7-3.7c0.3,0,0.5,0.1,0.7,0.3
		c0.2,0.2,0.3,0.4,0.3,0.8c0,0.5-0.3,1.3-0.9,2.5c-0.6,1.2-1.5,2.8-2.6,4.8c-1.1,2-2.1,3.8-2.8,5.3c1.8,0.3,3.3,0.5,4.7,0.5
		c1.7,0,3.7-0.3,6.2-0.8c1.8-4.8,3.8-9.2,6.1-13.1c2.3-3.9,4.1-5.9,5.5-5.9c0.5,0,0.9,0.3,1.2,0.9c0.3,0.6,0.4,1.3,0.4,2.1
		c0,2.4-1.1,5.3-3.2,8.8c-2.1,3.5-4.6,6.1-7.3,7.7c-0.6,1.4-1.1,3.3-1.6,5.6s-0.7,4.2-0.7,5.5c0,0.5,0,1.1,0.1,1.6
		c2.8-8.3,6.1-12.4,9.7-12.4c1.2,0,2.1,0.4,2.7,1.3c0.6,0.8,0.9,1.9,0.9,3c0,1.1-0.3,2.5-1,4.3s-1,3.1-1,3.8c0,1.2,0.5,1.8,1.4,1.8
		c1.1,0,2.4-0.8,3.8-2.3c1.5-1.5,2.7-3.3,3.6-5.4l0.6,0.6c-1.1,2.4-2.4,4.4-4.1,6c-1.6,1.6-3.4,2.4-5.2,2.4c-1.1,0-1.9-0.3-2.4-0.8
		c-0.6-0.6-0.9-1.3-0.9-2.2c0-0.6,0.2-1.8,0.7-3.5c0.5-1.7,0.7-2.9,0.7-3.7c0-1.5-0.6-2.3-1.8-2.3c-1.1,0-2.1,0.7-3,2.1
		c-1,1.4-1.8,2.9-2.4,4.6s-1.2,3.2-1.9,4.6c-0.7,1.4-1.3,2.1-1.9,2.1c-0.6,0-1-0.5-1.4-1.5c-0.4-1-0.6-2.2-0.6-3.5
		c0-0.6,0-1.2,0.1-2c-1.2,2.2-2.8,4-4.6,5.3c-1.8,1.3-3.6,2-5.5,2C313.9,114.1,312.5,112.5,312.5,109.3z M315.5,108.5
		c0,1.4,0.2,2.4,0.6,3c0.4,0.6,1.1,0.9,2.1,0.9c1.6,0,3.2-0.7,4.8-2.2c1.6-1.5,3-3.5,4.3-6c0.4-2.2,1-4.3,1.7-6.2
		c-1.9,0.4-3.9,0.6-5.9,0.6c-1.3,0-3-0.2-4.9-0.5C316.3,102,315.5,105.5,315.5,108.5z M332.8,95.3c2-1.7,3.9-4,5.6-6.9
		c1.7-3,2.6-5.1,2.6-6.5c0-0.3-0.1-0.4-0.2-0.4c-0.4,0-1,0.6-1.9,1.8c-0.9,1.2-2,2.9-3.2,5.1C334.5,90.6,333.5,92.9,332.8,95.3z"/>
	<path fill="#FFFFFF" d="M348.6,108.4c0-2.9,1.3-6,4-9.1c2.7-3.1,5.4-4.7,8.2-4.7c2,0,3,1,3,2.9c0,2.3-1.2,4.4-3.7,6.2
		c-2.5,1.8-5.2,2.8-8.1,3.1c-0.1,0.5-0.2,1.1-0.2,1.7c0,2.7,1.3,4,3.8,4c2,0,3.9-0.8,5.9-2.4c2-1.6,3.6-3.6,4.8-6l0.6,0.4
		c-1.3,2.8-3.1,5.1-5.3,6.8s-4.6,2.6-7,2.6c-1.9,0-3.4-0.5-4.4-1.5C349.1,111.4,348.6,110,348.6,108.4z M352.1,105.9
		c2.2-0.8,4.4-2,6.4-3.6c2.1-1.6,3.1-3.3,3.1-5.1c0-0.7-0.3-1.1-1-1.1c-1.5,0-3.1,1-4.9,3.1C354,101.3,352.8,103.6,352.1,105.9z"/>
	<path fill="#FFFFFF" d="M375.1,117.6c1.1-3.1,1.9-6.2,2.5-9.3c0.6-3.2,1.3-7.6,2-13.5c0-0.3,0.1-0.5,0.2-0.6
		c0.1-0.1,0.3-0.2,0.7-0.2c0.8,0,1.3,0.2,1.7,0.6c0.4,0.4,0.6,0.9,0.6,1.5c0,0.9-0.4,3.1-1.1,6.6c1-1.9,2.2-3.6,3.6-5
		c1.4-1.4,3-2.1,4.7-2.1c1.4,0,2.6,0.5,3.5,1.5s1.4,2.4,1.4,4c0,2.8-1.1,5.5-3.3,8.1c-2.2,2.7-4.9,4-8,4c-0.8,0-1.5-0.1-2-0.3
		c-0.5-0.2-0.8-0.4-0.8-0.6c0-0.2,0.4-0.3,1.2-0.3c2.5,0,4.8-1.1,6.8-3.4c2-2.2,3-4.6,3-7.2c0-1.1-0.2-2-0.7-2.7c-0.5-0.7-1.1-1-2-1
		c-1.5,0-3,0.8-4.5,2.5s-2.7,3.4-3.4,5.2c-2.8,11.9-4.8,18.5-5.9,19.5c-0.2,0.2-0.4,0.2-0.6,0.2c-0.4,0-0.7-0.3-1.1-0.8
		c-0.3-0.5-0.5-0.8-0.4-1c0-0.3,0.1-0.6,0.2-1.1c0.1-0.5,0.4-1.2,0.8-2.3C374.6,119.1,374.9,118.3,375.1,117.6z"/>
	<path fill="#FFFFFF" d="M396.5,105.7c1.5-3,2.8-6,3.9-9.1c-0.4-0.3-0.5-0.7-0.5-1.2c0-0.9,0.2-1.6,0.7-2.3c0.5-0.7,0.9-1,1.3-1
		c0.4,0,0.7,0.4,0.7,1.2c0,0.1-0.1,0.4-0.2,0.9s-0.2,0.8-0.2,0.8c0,0.4,0.3,0.8,0.8,1.2c0.5,0.4,1.1,0.8,1.7,1.2
		c0.6,0.4,1.2,1,1.7,1.7c0.5,0.8,0.8,1.6,0.8,2.5c0,1.1-0.4,2.5-1.2,4.4c-0.8,1.9-1.2,3.1-1.2,3.7c0,1,0.5,1.4,1.5,1.4
		c1.4,0,3-0.8,4.6-2.4c1.7-1.6,2.9-3.2,3.5-4.8l0.6,0.5c-1,2.2-2.4,4.2-4.3,5.9c-1.9,1.7-3.8,2.6-5.7,2.6c-1.1,0-1.9-0.3-2.6-0.9
		s-0.9-1.4-0.9-2.3c0-1,0.4-2.5,1.3-4.6s1.3-3.6,1.3-4.4c0-0.3,0-0.6-0.1-0.9c-0.1-0.3-0.2-0.5-0.3-0.7c-0.1-0.2-0.2-0.4-0.5-0.6
		l-0.5-0.5c-0.1-0.1-0.3-0.3-0.6-0.5c-0.3-0.2-0.5-0.4-0.6-0.4c-1.6,3.8-3,6.9-4.4,9.2L396.5,105.7z"/>
	<path fill="#FFFFFF" d="M412.7,109.1c0-2,0.6-4.1,1.8-6.1c1.2-2,2.4-3,3.8-3c0.3,0,0.6,0.1,1,0.2c-0.6,0.5-1.3,1.8-2.2,3.8
		c-0.8,2-1.2,3.6-1.2,4.8c0,1.9,0.6,2.8,1.7,2.8c1.4,0,3.1-1.3,5.1-3.9c-0.9-0.7-1.6-1.7-2.1-2.9c-0.5-1.2-0.7-2.4-0.7-3.7
		c0-1.7,0.4-3.1,1.3-4.3c0.8-1.2,2-1.8,3.4-1.8c2.2,0,3.3,1.2,3.3,3.7s-1.1,5.3-3.2,8.5c0.6,0.3,1.2,0.5,1.8,0.5
		c0.9,0,1.9-0.3,2.9-0.8s1.7-1.4,2.3-2.6l0.6,0.5c-0.6,1.4-1.5,2.4-2.6,3.1s-2.3,1-3.5,1c-0.9,0-1.6-0.2-2.3-0.5c-2.6,3.4-5,5-7.3,5
		c-1.3,0-2.3-0.4-2.9-1.2S412.7,110.4,412.7,109.1z M421.9,101.2c0,2.2,0.5,3.9,1.6,5.2c1.9-2.8,2.8-5.2,2.8-7.4
		c0-1.8-0.5-2.7-1.4-2.7c-0.7,0-1.4,0.5-2,1.5C422.2,98.7,421.9,99.9,421.9,101.2z"/>
	<path fill="#FFFFFF" d="M421.4,122.9c0-1.2,0.6-2.5,1.7-3.9s2.6-2.6,4.3-3.6l3.1-1.5c1.4-3.4,2.4-7.4,3.2-11.8l-1.3,2.3l-0.9,1.5
		l-0.4-0.7c0.5-1,1.1-2.3,1.8-4.2c0.7-1.8,1.3-3.2,1.8-4.2c0.5-1,1.1-1.5,1.7-1.5c0.8,0,1.2,0.5,1.2,1.4c0,0.9-0.4,2.9-1.1,6.1
		c-0.8,3.2-1.7,6.4-2.7,9.5c0.1-0.1,0.5-0.3,1.2-0.6c0.6-0.4,1.1-0.6,1.3-0.7l1.1-0.8c0.5-0.4,1-0.7,1.2-1.1l1.2-1.2
		c0.4-0.5,0.9-1,1.2-1.6c0.4-0.6,0.8-1.2,1.2-1.9l0.6,0.3c-0.4,1.1-1,2.1-1.5,2.9c-0.6,0.8-1.3,1.6-2.1,2.3
		c-0.8,0.7-1.4,1.1-1.9,1.5c-0.4,0.3-1.2,0.8-2.2,1.3c-1,0.6-1.6,0.9-1.8,1c-2.8,7.8-5.9,11.7-9.3,11.7c-0.8,0-1.4-0.2-1.8-0.7
		C421.7,124.2,421.4,123.6,421.4,122.9z M422.7,122.5c0,0.8,0.3,1.2,0.8,1.2c0.7,0,1.7-0.7,2.9-2.2c1.2-1.5,2.4-3.5,3.6-6.1
		c-2.3,1.2-4.1,2.4-5.4,3.6C423.3,120.3,422.7,121.5,422.7,122.5z M435.2,89.4c0-0.7,0.4-1.3,1.1-1.8c0.8-0.5,1.5-0.8,2.4-0.8
		c1.1,0,1.6,0.4,1.6,1.3c0,0.7-0.3,1.3-1,1.9c-0.7,0.6-1.4,0.8-2.2,0.8c-0.5,0-1-0.1-1.4-0.4C435.4,90.2,435.2,89.8,435.2,89.4z"/>
	<path fill="#FFFFFF" d="M440.5,108.4c0-2.9,1.3-6,4-9.1c2.7-3.1,5.4-4.7,8.2-4.7c2,0,3,1,3,2.9c0,2.3-1.2,4.4-3.7,6.2
		c-2.5,1.8-5.2,2.8-8.1,3.1c-0.1,0.5-0.2,1.1-0.2,1.7c0,2.7,1.3,4,3.8,4c2,0,3.9-0.8,5.9-2.4c2-1.6,3.6-3.6,4.8-6l0.6,0.4
		c-1.3,2.8-3.1,5.1-5.3,6.8s-4.6,2.6-7,2.6c-1.9,0-3.4-0.5-4.4-1.5C441,111.4,440.5,110,440.5,108.4z M444,105.9
		c2.2-0.8,4.4-2,6.4-3.6c2.1-1.6,3.1-3.3,3.1-5.1c0-0.7-0.3-1.1-1-1.1c-1.5,0-3.1,1-4.9,3.1C445.9,101.3,444.7,103.6,444,105.9z"/>
	<path fill="#FFFFFF" d="M456.9,108.4c0-3.2,1.1-6.1,3.4-8.8c2.3-2.7,4.6-4,7.1-4c1.2,0,2.1,0.3,2.6,1c0.5,0.7,0.8,1.5,0.8,2.5
		c0,1-0.2,1.8-0.6,2.5c-0.4,0.7-1,1-1.8,1c-0.5,0-1-0.2-1.4-0.7c0.5-0.2,0.9-0.7,1.2-1.5c0.4-0.8,0.5-1.5,0.5-2.3
		c0-0.8-0.4-1.2-1.1-1.2c-1.7,0-3.4,1.4-5.2,4.1s-2.7,5.3-2.7,7.7c0,2.7,1.2,4,3.5,4c2,0,3.9-0.8,5.8-2.4c1.9-1.6,3.4-3.7,4.4-6.3
		l0.6,0.5c-1.1,2.9-2.8,5.3-5,7.2c-2.3,1.9-4.6,2.8-6.9,2.8c-1.6,0-2.9-0.5-3.9-1.6C457.4,111.9,456.9,110.4,456.9,108.4z"/>
	<path fill="#FFFFFF" d="M472.4,109.3c0-2.8,0.9-6.6,2.8-11.6c-0.8-0.1-1.3-0.3-1.7-0.4v-0.9c1.2,0.1,1.9,0.2,2.1,0.2
		c1.4-3.6,2.9-6.8,4.5-9.5c1.6-2.7,2.9-4,3.8-4c0.3,0,0.5,0.1,0.7,0.3c0.2,0.2,0.3,0.4,0.3,0.8c0,0.5-0.3,1.3-0.9,2.5
		c-0.6,1.2-1.5,2.8-2.6,4.8c-1.1,2-2.1,3.8-2.8,5.3h1.8c2.7,0,4.9-0.1,6.9-0.3v0.9c-3.4,0.4-6.1,0.6-8.2,0.6c-0.1,0-0.2,0-0.2,0H478
		c-1.8,4-2.6,7.5-2.6,10.4c0,1.4,0.2,2.4,0.6,3c0.4,0.6,1.1,0.9,2.1,0.9c1.6,0,3.2-0.7,4.8-2.2c1.6-1.5,3-3.5,4.3-6l0.6,0.5
		c-1.2,2.8-2.8,5.1-4.8,6.8s-4.1,2.7-6.3,2.7C473.8,114.1,472.4,112.5,472.4,109.3z"/>
</g>
</svg>
