<?xml version="1.0" encoding="utf-8"?>
<!-- Generator: Adobe Illustrator 18.1.1, SVG Export Plug-In . SVG Version: 6.00 Build 0)  -->
<svg version="1.1" id="Layer_1" xmlns="http://www.w3.org/2000/svg" xmlns:xlink="http://www.w3.org/1999/xlink" x="0px" y="0px"
	 viewBox="0 0 566.9 283.5" enable-background="new 0 0 566.9 283.5" xml:space="preserve">
<polyline fill="#FFFFFF" points="300.3,115.9 283.5,143.2 249.1,87.4 283.5,31.7 283.5,34.4 250.8,87.4 283.5,140.5 298.6,115.9 "/>
<polygon fill="#FFFFFF" points="300.2,50.7 300.2,63.4 287.5,63.4 287.5,64.6 300.2,64.6 300.2,77.2 301.4,77.2 301.4,64.6 
	314.1,64.6 314.1,63.4 301.4,63.4 301.4,50.7 "/>
<g>
	<path fill="#FFFFFF" d="M86.2,176.9c0,4.4-0.6,8.4-1.9,11.8c-1.3,3.5-3,6.4-5.3,8.8c-2.3,2.4-5,4.2-8.2,5.5
		c-3.2,1.3-6.7,1.9-10.5,1.9h-20v-56h20c3.8,0,7.3,0.6,10.5,1.9c3.2,1.3,5.9,3.1,8.2,5.5c2.3,2.4,4.1,5.3,5.3,8.8
		C85.6,168.6,86.2,172.5,86.2,176.9z M85.2,176.9c0-4.3-0.6-8.2-1.8-11.6c-1.2-3.4-2.9-6.2-5.1-8.5c-2.2-2.3-4.8-4.1-7.9-5.3
		c-3.1-1.2-6.4-1.8-10.1-1.8h-19v54.4h19c3.7,0,7-0.6,10.1-1.8c3.1-1.2,5.7-3,7.9-5.3c2.2-2.3,3.9-5.2,5.1-8.5
		C84.6,185.2,85.2,181.3,85.2,176.9z"/>
	<path fill="#FFFFFF" d="M100.5,204.9h-0.7v-39.2h0.7V204.9z"/>
	<path fill="#FFFFFF" d="M142.2,204.9h-0.5c-0.2,0-0.3-0.1-0.3-0.3l-5.5-13.1h-20.7l-5.5,13.1c-0.1,0.2-0.2,0.3-0.4,0.3h-0.4
		l16.4-39.2h0.6L142.2,204.9z M115.4,191h20.2l-9.7-23.2c-0.1-0.2-0.2-0.4-0.2-0.6c-0.1-0.2-0.1-0.4-0.2-0.6
		c-0.1,0.2-0.1,0.4-0.2,0.6c-0.1,0.2-0.1,0.4-0.2,0.6L115.4,191z"/>
	<path fill="#FFFFFF" d="M167.9,196c0.1,0.1,0.1,0.2,0.2,0.3c0,0.1,0.1,0.2,0.2,0.3c0.1-0.1,0.1-0.2,0.2-0.3c0-0.1,0.1-0.2,0.2-0.3
		l17.2-30c0.1-0.1,0.2-0.2,0.4-0.2h0.2v39.2h-0.6v-37.5c0-0.1,0-0.2,0-0.3c0-0.1,0-0.2,0-0.3l-17.2,29.9c-0.1,0.2-0.3,0.3-0.4,0.3
		h-0.2c-0.1,0-0.3-0.1-0.4-0.3L150,167c0,0.1,0,0.2,0,0.3s0,0.2,0,0.3v37.5h-0.6v-39.2h0.2c0.2,0,0.3,0.1,0.4,0.2L167.9,196z"/>
	<path fill="#FFFFFF" d="M233.5,185.3c0,3.1-0.4,5.9-1.3,8.3c-0.9,2.5-2.1,4.6-3.7,6.3c-1.6,1.7-3.5,3.1-5.7,4
		c-2.2,0.9-4.7,1.4-7.4,1.4c-2.7,0-5.1-0.5-7.3-1.4c-2.2-0.9-4.1-2.2-5.7-4c-1.6-1.7-2.8-3.8-3.7-6.3c-0.9-2.5-1.3-5.2-1.3-8.3
		c0-3.1,0.4-5.9,1.3-8.3c0.9-2.5,2.1-4.6,3.7-6.3c1.6-1.7,3.5-3.1,5.7-4c2.2-0.9,4.7-1.4,7.3-1.4c2.7,0,5.1,0.5,7.4,1.4
		c2.2,0.9,4.1,2.3,5.7,4c1.6,1.7,2.8,3.8,3.7,6.3C233,179.5,233.5,182.3,233.5,185.3z M232.8,185.3c0-3-0.4-5.8-1.3-8.2
		c-0.8-2.4-2-4.5-3.6-6.1c-1.5-1.7-3.4-3-5.5-3.8c-2.1-0.9-4.5-1.3-7.1-1.3c-2.5,0-4.9,0.4-7,1.3s-4,2.2-5.5,3.8
		c-1.5,1.7-2.7,3.7-3.6,6.1c-0.9,2.4-1.3,5.1-1.3,8.2c0,3,0.4,5.8,1.3,8.2c0.9,2.4,2.1,4.4,3.6,6.1c1.5,1.7,3.4,2.9,5.5,3.8
		c2.1,0.9,4.5,1.3,7,1.3c2.6,0,4.9-0.4,7.1-1.3c2.1-0.9,4-2.2,5.5-3.8c1.5-1.7,2.7-3.7,3.6-6.1C232.3,191.1,232.8,188.4,232.8,185.3
		z"/>
	<path fill="#FFFFFF" d="M245,166l27.7,37.8c0-0.1,0-0.2,0-0.3c0-0.1,0-0.2,0-0.3v-37.4h0.6v39.2h-0.2c-0.1,0-0.2-0.1-0.3-0.2
		l-27.9-37.9c0,0.1,0,0.2,0,0.4c0,0.1,0,0.2,0,0.3v37.5h-0.6v-39.2h0.2C244.8,165.7,244.9,165.8,245,166z"/>
	<path fill="#FFFFFF" d="M318.9,185.3c0,3.1-0.4,5.9-1.3,8.3c-0.9,2.4-2.1,4.5-3.7,6.2c-1.6,1.7-3.5,3-5.7,3.8
		c-2.2,0.9-4.7,1.3-7.4,1.3h-14v-39.2h14c2.7,0,5.1,0.4,7.4,1.3c2.2,0.9,4.1,2.2,5.7,3.8c1.6,1.7,2.8,3.7,3.7,6.2
		C318.4,179.5,318.9,182.3,318.9,185.3z M318.2,185.3c0-3-0.4-5.7-1.3-8.1c-0.8-2.4-2-4.4-3.6-6s-3.4-2.9-5.5-3.7
		c-2.1-0.8-4.5-1.3-7.1-1.3h-13.3v38.1h13.3c2.6,0,4.9-0.4,7.1-1.3c2.1-0.8,4-2.1,5.5-3.7s2.7-3.6,3.6-6
		C317.7,191.1,318.2,188.4,318.2,185.3z"/>
	<path fill="#FFFFFF" d="M373.6,154.1c-0.1,0.2-0.3,0.2-0.4,0.2c-0.2,0-0.6-0.3-1.1-0.8c-0.5-0.5-1.2-1.1-2.2-1.8
		c-0.9-0.6-2.2-1.2-3.7-1.8c-1.5-0.5-3.4-0.8-5.6-0.8c-2.3,0-4.3,0.4-6.1,1.1s-3.3,1.6-4.5,2.8c-1.2,1.2-2.1,2.5-2.7,4.1
		c-0.6,1.5-0.9,3.2-0.9,4.8c0,2.2,0.4,4,1.3,5.4s1.9,2.7,3.3,3.6c1.4,1,2.9,1.8,4.7,2.5c1.8,0.7,3.5,1.3,5.4,1.9
		c1.8,0.6,3.6,1.2,5.4,1.9s3.3,1.5,4.7,2.5c1.4,1,2.5,2.3,3.3,3.8c0.8,1.5,1.3,3.4,1.3,5.7c0,2.3-0.4,4.4-1.2,6.4
		c-0.8,2-1.9,3.7-3.4,5.2s-3.3,2.6-5.4,3.5c-2.1,0.9-4.6,1.3-7.3,1.3c-1.9,0-3.6-0.2-5.1-0.5c-1.5-0.3-2.9-0.8-4.1-1.4
		c-1.2-0.6-2.4-1.4-3.4-2.3c-1-0.9-2-1.9-3-3.1l0.2-0.2c0.1-0.1,0.1-0.1,0.2-0.2s0.1-0.1,0.3-0.1c0.2,0,0.4,0.2,0.7,0.5
		c0.3,0.3,0.7,0.8,1.3,1.3c0.5,0.5,1.2,1.1,1.9,1.7c0.7,0.6,1.7,1.1,2.7,1.7s2.3,0.9,3.7,1.3c1.4,0.3,2.9,0.5,4.7,0.5
		c2.6,0,4.9-0.4,6.9-1.2c2-0.8,3.7-1.9,5.1-3.3c1.4-1.4,2.5-3,3.2-4.9c0.7-1.9,1.1-3.9,1.1-6c0-1.8-0.3-3.3-0.8-4.6
		c-0.5-1.3-1.3-2.4-2.2-3.3c-0.9-0.9-2-1.7-3.3-2.4c-1.2-0.7-2.6-1.2-4-1.8c-1.4-0.5-2.9-1-4.3-1.4s-2.9-0.9-4.3-1.5
		c-1.4-0.5-2.7-1.1-4-1.8c-1.2-0.7-2.3-1.5-3.3-2.5c-0.9-1-1.7-2.1-2.2-3.5s-0.8-2.9-0.8-4.8c0-1.8,0.3-3.5,1-5.1
		c0.7-1.6,1.6-3.1,2.9-4.3c1.3-1.3,2.9-2.3,4.7-3c1.9-0.7,4-1.1,6.5-1.1c2.7,0,5.1,0.4,7.2,1.3c2.1,0.9,4.1,2.3,5.9,4.2L373.6,154.1
		z"/>
	<path fill="#FFFFFF" d="M415.6,199.7c0.1,0,0.1,0,0.2,0.1l0.3,0.2c-0.8,0.8-1.7,1.5-2.6,2.2c-0.9,0.7-2,1.2-3.1,1.7
		s-2.4,0.8-3.7,1.1s-2.8,0.4-4.5,0.4c-2.6,0-5.1-0.5-7.3-1.4c-2.2-0.9-4.1-2.3-5.8-4c-1.6-1.7-2.9-3.8-3.8-6.3
		c-0.9-2.5-1.4-5.3-1.4-8.4c0-3,0.5-5.7,1.4-8.2c0.9-2.5,2.2-4.6,3.8-6.3c1.7-1.8,3.6-3.1,5.9-4.1c2.3-1,4.8-1.4,7.6-1.4
		c1.4,0,2.7,0.1,3.8,0.3c1.1,0.2,2.2,0.5,3.2,0.9c1,0.4,1.9,0.9,2.8,1.4s1.8,1.3,2.7,2l-0.1,0.1c-0.1,0.1-0.2,0.1-0.3,0.1
		c-0.1,0-0.4-0.1-0.6-0.3c-0.3-0.2-0.6-0.5-1-0.8s-0.9-0.7-1.6-1c-0.6-0.4-1.4-0.7-2.2-1c-0.9-0.3-1.9-0.6-3-0.8
		c-1.1-0.2-2.4-0.3-3.8-0.3c-2.7,0-5.1,0.5-7.3,1.4c-2.2,0.9-4.1,2.2-5.7,3.9c-1.6,1.7-2.8,3.7-3.7,6.1c-0.9,2.4-1.3,5.1-1.3,8.1
		c0,3,0.4,5.8,1.3,8.2c0.9,2.4,2.1,4.5,3.7,6.1s3.4,3,5.6,3.9s4.5,1.3,7,1.3c1.6,0,3-0.1,4.3-0.3c1.3-0.2,2.4-0.6,3.4-1
		c1-0.4,2-1,2.9-1.6s1.8-1.3,2.6-2.1C415.5,199.7,415.5,199.7,415.6,199.7z"/>
	<path fill="#FFFFFF" d="M460.3,185.3c0,3.1-0.4,5.9-1.3,8.3c-0.9,2.5-2.1,4.6-3.7,6.3c-1.6,1.7-3.5,3.1-5.7,4
		c-2.2,0.9-4.7,1.4-7.4,1.4c-2.7,0-5.1-0.5-7.3-1.4c-2.2-0.9-4.1-2.2-5.7-4c-1.6-1.7-2.8-3.8-3.7-6.3c-0.9-2.5-1.3-5.2-1.3-8.3
		c0-3.1,0.4-5.9,1.3-8.3c0.9-2.5,2.1-4.6,3.7-6.3c1.6-1.7,3.5-3.1,5.7-4c2.2-0.9,4.7-1.4,7.3-1.4c2.7,0,5.1,0.5,7.4,1.4
		c2.2,0.9,4.1,2.3,5.7,4s2.8,3.8,3.7,6.3C459.9,179.5,460.3,182.3,460.3,185.3z M459.6,185.3c0-3-0.4-5.8-1.3-8.2
		c-0.8-2.4-2-4.5-3.6-6.1c-1.5-1.7-3.4-3-5.5-3.8c-2.1-0.9-4.5-1.3-7.1-1.3c-2.5,0-4.9,0.4-7,1.3s-4,2.2-5.5,3.8
		c-1.5,1.7-2.7,3.7-3.6,6.1c-0.9,2.4-1.3,5.1-1.3,8.2c0,3,0.4,5.8,1.3,8.2c0.9,2.4,2.1,4.4,3.6,6.1c1.5,1.7,3.4,2.9,5.5,3.8
		c2.1,0.9,4.5,1.3,7,1.3c2.6,0,4.9-0.4,7.1-1.3c2.1-0.9,4-2.2,5.5-3.8c1.5-1.7,2.7-3.7,3.6-6.1C459.2,191.1,459.6,188.4,459.6,185.3
		z"/>
	<path fill="#FFFFFF" d="M473,188.1v16.8h-0.7v-39.2h8.8c4.3,0,7.6,0.9,9.8,2.8c2.3,1.8,3.4,4.7,3.4,8.4c0,1.6-0.3,3.1-1,4.5
		c-0.6,1.4-1.6,2.6-2.7,3.5c-1.2,1-2.6,1.8-4.2,2.3s-3.4,0.8-5.4,0.8H473z M473,187.6h8.2c1.9,0,3.7-0.3,5.2-0.8
		c1.5-0.6,2.9-1.3,4-2.3c1.1-1,1.9-2.1,2.5-3.4s0.9-2.7,0.9-4.2c0-3.5-1-6.1-3.2-7.9c-2.1-1.8-5.3-2.7-9.4-2.7H473V187.6z"/>
	<path fill="#FFFFFF" d="M526.6,165.7v0.6h-22.2v18.4h18.9v0.6h-18.9v19h22.3l-0.1,0.6h-22.9v-39.2H526.6z"/>
</g>
<g>
	<path fill="#FFFFFF" d="M119,248l15.2-33.7c0.3-0.7,0.5-1.4,0.5-2c0-0.8-0.5-1.2-1.6-1.2c-1.9,0-3.4,0.9-4.4,2.7
		c-1,1.8-1.6,3.8-1.6,6c0,0.4,0,0.9,0.1,1.5c-0.8,0-1.5-0.4-1.9-1.2c-0.4-0.8-0.6-1.7-0.6-2.7c0-2,1-3.9,3-5.6
		c2-1.7,4.1-2.5,6.3-2.5c1.6,0,2.9,0.8,3.6,2.3c0.8,1.5,1.2,4.3,1.2,8.5c0,2.3-0.2,5.7-0.5,10.2c-0.3,4.6-0.5,7.4-0.5,8.7
		c0.8-2.9,2.2-6.5,4.3-10.7c2.1-4.2,3.9-7.6,5.4-10.1c1.5-2.5,2.9-4.6,4-6.3c0.4-0.5,0.6-0.9,0.8-1.1c0.2-0.2,0.4-0.4,0.7-0.6
		c0.3-0.2,0.6-0.3,0.9-0.3c0.4,0,1,0.1,1.5,0.3c-0.8,1.9-1.5,4.2-2.2,6.7c-0.8,4.3-1.7,9.1-2.8,14.5c-1,5.4-1.6,9.6-1.6,12.6
		c0,0.5,0,1,0.1,1.3s0.1,0.6,0.1,0.8c0,0.2,0.1,0.5,0.2,0.8c0.1,0.4,0.2,0.7,0.3,1c-1.6,0-2.7-0.4-3.2-1.2c-0.5-0.8-0.8-2.2-0.8-4.2
		c0-2.4,0.3-5.2,1-8.3c0.7-3.1,1.3-5.8,1.7-8l2.1-9.6c-2.1,2.6-4.4,6.8-7,12.6c-2.6,5.8-4.6,10.6-5.9,14.3c-0.3,0.1-0.6,0.2-0.7,0.2
		c-0.8,0-1.3-0.5-1.6-1.4c-0.3-0.9-0.5-2.4-0.5-4.4c0-1.8,0.1-5.2,0.4-10.3c0.3-5.1,0.4-8.5,0.4-10.1c0-0.9,0-1.8-0.1-2.7l-3.2,7.4
		l-2.6,6.4l-2.2,5.3l-1.9,4.5L124,242c-0.6,1.2-1,2.1-1.4,2.7c-0.4,0.7-0.8,1.3-1.2,1.8c-0.4,0.5-0.8,0.9-1.2,1.1
		C119.8,247.9,119.4,248,119,248z"/>
	<path fill="#FFFFFF" d="M154.1,242.1c0-1.9,0.7-4,2-6.3c1.3-2.3,3-4.3,5.1-6c2.1-1.7,4.1-2.5,6.1-2.5c1.3,0,2.3,0.3,3.1,1
		c0.8,0.7,1.3,1.6,1.3,2.6c0,1.4-0.8,2.1-2.4,2.1c0.2-0.6,0.2-1.1,0.2-1.7c0-1.8-0.8-2.7-2.4-2.7c-1.4,0-2.9,0.8-4.5,2.4
		c-1.6,1.6-2.9,3.5-3.9,5.6c-1,2.1-1.5,4-1.5,5.5c0,1.2,0.4,1.9,1.3,1.9c0.6,0,1.2-0.3,2-0.8c0.8-0.5,1.5-1.2,2.1-1.8
		c0.6-0.7,1.4-1.6,2.3-2.7c0.9-1.1,1.5-2,1.9-2.6l1.7-2.5c1.3,0.2,1.9,0.6,1.9,1.2c0,0.3-0.5,1.2-1.4,2.9c-0.9,1.7-1.4,2.9-1.4,3.8
		c0,0.5,0.1,1,0.4,1.5c0.3,0.4,0.7,0.6,1.3,0.6c0.9,0,2.1-0.7,3.5-2s2.8-3.2,4.2-5.6l0.5,0.5c-1,2.5-2.4,4.6-4.2,6.2
		c-1.8,1.6-3.6,2.4-5.3,2.4c-1.1,0-2-0.3-2.5-1c-0.6-0.6-0.9-1.4-0.9-2.3c0-0.4,0-0.8,0.1-1.4c-1.4,1.9-2.7,3.3-3.9,4.2
		c-1.1,0.9-2.3,1.3-3.4,1.3c-1.1,0-1.9-0.3-2.6-1C154.4,244.3,154.1,243.3,154.1,242.1z"/>
	<path fill="#FFFFFF" d="M175.3,239.9c0-0.9,0.1-1.6,0.4-2.2c0.3-0.6,0.6-1,1-1.2c0.4-0.2,0.7-0.4,1.1-0.6c0.4-0.2,0.6-0.3,0.7-0.4
		c2-2.2,3.6-4.6,4.7-7V228c0-1.1,0.2-1.9,0.6-2.4c0.4-0.5,0.8-0.8,1.3-0.8s0.8,0.2,0.8,0.6c0,0.1,0,0.3-0.1,0.8
		c-0.1,0.4-0.1,0.9-0.1,1.3c0,1,0.4,2.7,1.2,5.3c0.8,2.6,1.2,4.7,1.2,6.2c0,0.9-0.1,1.6-0.3,2.4c2.4-0.4,4.4-2.2,6-5.4l0.4,0.5
		c-1.1,3.3-3.4,5.2-6.7,5.7c-1,2.7-3,4-6.1,4c-2.1,0-3.7-0.6-4.7-1.9S175.3,241.6,175.3,239.9z M177.6,239.9c0,1.2,0.4,2.3,1.1,3.2
		c0.7,0.9,1.7,1.4,2.8,1.4c1.5,0,2.5-0.8,3-2.4c-1.3-0.3-2.4-0.8-3.5-1.5s-1.8-1.6-2.4-2.5C178,238.2,177.6,238.8,177.6,239.9z
		 M178.9,236.7c1.2,2.5,3.1,4.1,5.9,4.7c0.1-0.8,0.2-1.6,0.2-2.3c0-0.9-0.1-1.8-0.2-2.8c-0.2-1-0.4-2.1-0.7-3.3
		c-0.3-1.2-0.5-2.1-0.6-2.6C181.9,233.2,180.3,235.3,178.9,236.7z"/>
	<path fill="#FFFFFF" d="M192.6,241.2c0-2.8,0.9-6.6,2.8-11.6c-0.8-0.1-1.3-0.3-1.7-0.4v-0.9c1.2,0.1,1.9,0.2,2.1,0.2
		c1.4-3.6,2.9-6.8,4.5-9.5c1.6-2.7,2.9-4,3.8-4c0.3,0,0.5,0.1,0.7,0.3c0.2,0.2,0.3,0.4,0.3,0.8c0,0.5-0.3,1.3-0.9,2.5
		c-0.6,1.2-1.5,2.8-2.6,4.8c-1.1,2-2.1,3.8-2.8,5.3h1.8c2.7,0,4.9-0.1,6.9-0.3v0.9c-3.4,0.4-6.1,0.6-8.2,0.6c-0.1,0-0.2,0-0.2,0
		h-0.7c-1.8,4-2.6,7.5-2.6,10.4c0,1.4,0.2,2.4,0.6,3c0.4,0.6,1.1,0.9,2.1,0.9c1.6,0,3.2-0.7,4.8-2.2c1.6-1.5,3-3.5,4.3-6l0.6,0.5
		c-1.2,2.8-2.8,5.1-4.8,6.8s-4.1,2.7-6.3,2.7C194,246,192.6,244.4,192.6,241.2z"/>
	<path fill="#FFFFFF" d="M205.8,240.3c0-2.9,1.3-6,4-9.1c2.7-3.1,5.4-4.7,8.2-4.7c2,0,3,1,3,2.9c0,2.3-1.2,4.4-3.7,6.2
		c-2.5,1.8-5.2,2.8-8.1,3.1c-0.1,0.5-0.2,1.1-0.2,1.7c0,2.7,1.3,4,3.8,4c2,0,3.9-0.8,5.9-2.4c2-1.6,3.6-3.6,4.8-6l0.6,0.4
		c-1.3,2.8-3.1,5.1-5.3,6.8s-4.6,2.6-7,2.6c-1.9,0-3.4-0.5-4.4-1.5C206.3,243.3,205.8,241.9,205.8,240.3z M209.4,237.8
		c2.2-0.8,4.4-2,6.4-3.6c2.1-1.6,3.1-3.3,3.1-5.1c0-0.7-0.3-1.1-1-1.1c-1.5,0-3.1,1-4.9,3.1C211.3,233.2,210,235.5,209.4,237.8z"/>
	<path fill="#FFFFFF" d="M222.6,237.6c1.5-3,2.8-6,3.9-9.1c-0.4-0.3-0.5-0.7-0.5-1.2c0-0.9,0.2-1.6,0.7-2.3c0.5-0.7,0.9-1,1.3-1
		c0.4,0,0.7,0.4,0.7,1.2c0,0.1-0.1,0.4-0.2,0.9s-0.2,0.8-0.2,0.8c0,0.4,0.3,0.8,0.8,1.2c0.5,0.4,1.1,0.8,1.7,1.2
		c0.6,0.4,1.2,1,1.7,1.7c0.5,0.8,0.8,1.6,0.8,2.5c0,1.1-0.4,2.5-1.2,4.4c-0.8,1.9-1.2,3.1-1.2,3.7c0,1,0.5,1.4,1.5,1.4
		c1.4,0,3-0.8,4.6-2.4c1.7-1.6,2.9-3.2,3.5-4.8l0.6,0.5c-1,2.2-2.4,4.2-4.3,5.9c-1.9,1.7-3.8,2.6-5.7,2.6c-1.1,0-1.9-0.3-2.6-0.9
		s-0.9-1.4-0.9-2.3c0-1,0.4-2.5,1.3-4.6s1.3-3.6,1.3-4.4c0-0.3,0-0.6-0.1-0.9c-0.1-0.3-0.2-0.5-0.3-0.7c-0.1-0.2-0.2-0.4-0.5-0.6
		l-0.5-0.5c-0.1-0.1-0.3-0.3-0.6-0.5c-0.3-0.2-0.5-0.4-0.6-0.4c-1.6,3.8-3,6.9-4.4,9.2L222.6,237.6z"/>
	<path fill="#FFFFFF" d="M251.4,241.2c0-2.7,1-6.8,3-12.2c-0.3,0-0.6-0.1-1-0.3c-0.4-0.2-0.7-0.3-0.7-0.3v-0.9
		c0.1,0,0.4,0.1,0.9,0.2c0.5,0.1,0.9,0.2,1.2,0.3c1.4-3.6,2.9-6.7,4.4-9.1c1.5-2.5,2.8-3.7,3.7-3.7c0.3,0,0.5,0.1,0.7,0.3
		c0.2,0.2,0.3,0.4,0.3,0.8c0,0.5-0.3,1.3-0.9,2.5c-0.6,1.2-1.5,2.8-2.6,4.8c-1.1,2-2.1,3.8-2.8,5.3c1.8,0.3,3.3,0.5,4.7,0.5
		c1.7,0,3.7-0.3,6.2-0.8c1.8-4.8,3.8-9.2,6.1-13.1c2.3-3.9,4.1-5.9,5.5-5.9c0.5,0,0.9,0.3,1.2,0.9c0.3,0.6,0.4,1.3,0.4,2.1
		c0,2.4-1.1,5.3-3.2,8.8c-2.1,3.5-4.6,6.1-7.3,7.7c-0.6,1.4-1.1,3.3-1.6,5.6s-0.7,4.2-0.7,5.5c0,0.5,0,1.1,0.1,1.6
		c2.8-8.3,6.1-12.4,9.7-12.4c1.2,0,2.1,0.4,2.7,1.3c0.6,0.8,0.9,1.9,0.9,3c0,1.1-0.3,2.5-1,4.3s-1,3.1-1,3.8c0,1.2,0.5,1.8,1.4,1.8
		c1.1,0,2.4-0.8,3.8-2.3c1.5-1.5,2.7-3.3,3.6-5.4l0.6,0.6c-1.1,2.4-2.4,4.4-4.1,6c-1.6,1.6-3.4,2.4-5.2,2.4c-1.1,0-1.9-0.3-2.4-0.8
		c-0.6-0.6-0.9-1.3-0.9-2.2c0-0.6,0.2-1.8,0.7-3.5c0.5-1.7,0.7-2.9,0.7-3.7c0-1.5-0.6-2.3-1.8-2.3c-1.1,0-2.1,0.7-3,2.1
		c-1,1.4-1.8,2.9-2.4,4.6s-1.2,3.2-1.9,4.6c-0.7,1.4-1.3,2.1-1.9,2.1c-0.6,0-1-0.5-1.4-1.5c-0.4-1-0.6-2.2-0.6-3.5
		c0-0.6,0-1.2,0.1-2c-1.2,2.2-2.8,4-4.6,5.3c-1.8,1.3-3.6,2-5.5,2C252.8,246,251.4,244.4,251.4,241.2z M254.4,240.4
		c0,1.4,0.2,2.4,0.6,3c0.4,0.6,1.1,0.9,2.1,0.9c1.6,0,3.2-0.7,4.8-2.2c1.6-1.5,3-3.5,4.3-6c0.4-2.2,1-4.3,1.7-6.2
		c-1.9,0.4-3.9,0.6-5.9,0.6c-1.3,0-3-0.2-4.9-0.5C255.3,233.9,254.4,237.4,254.4,240.4z M271.7,227.2c2-1.7,3.9-4,5.6-6.9
		c1.7-3,2.6-5.1,2.6-6.5c0-0.3-0.1-0.4-0.2-0.4c-0.4,0-1,0.6-1.9,1.8c-0.9,1.2-2,2.9-3.2,5.1C273.4,222.5,272.5,224.8,271.7,227.2z"
		/>
	<path fill="#FFFFFF" d="M287.5,240.3c0-2.9,1.3-6,4-9.1c2.7-3.1,5.4-4.7,8.2-4.7c2,0,3,1,3,2.9c0,2.3-1.2,4.4-3.7,6.2
		c-2.5,1.8-5.2,2.8-8.1,3.1c-0.1,0.5-0.2,1.1-0.2,1.7c0,2.7,1.3,4,3.8,4c2,0,3.9-0.8,5.9-2.4c2-1.6,3.6-3.6,4.8-6l0.6,0.4
		c-1.3,2.8-3.1,5.1-5.3,6.8s-4.6,2.6-7,2.6c-1.9,0-3.4-0.5-4.4-1.5C288,243.3,287.5,241.9,287.5,240.3z M291.1,237.8
		c2.2-0.8,4.4-2,6.4-3.6c2.1-1.6,3.1-3.3,3.1-5.1c0-0.7-0.3-1.1-1-1.1c-1.5,0-3.1,1-4.9,3.1C292.9,233.2,291.7,235.5,291.1,237.8z"
		/>
	<path fill="#FFFFFF" d="M314.1,249.5c1.1-3.1,1.9-6.2,2.5-9.3c0.6-3.2,1.3-7.6,2-13.5c0-0.3,0.1-0.5,0.2-0.6
		c0.1-0.1,0.3-0.2,0.7-0.2c0.8,0,1.3,0.2,1.7,0.6c0.4,0.4,0.6,0.9,0.6,1.5c0,0.9-0.4,3.1-1.1,6.6c1-1.9,2.2-3.6,3.6-5
		c1.4-1.4,3-2.1,4.7-2.1c1.4,0,2.6,0.5,3.5,1.5s1.4,2.4,1.4,4c0,2.8-1.1,5.5-3.3,8.1c-2.2,2.7-4.9,4-8,4c-0.8,0-1.5-0.1-2-0.3
		c-0.5-0.2-0.8-0.4-0.8-0.6c0-0.2,0.4-0.3,1.2-0.3c2.5,0,4.8-1.1,6.8-3.4c2-2.2,3-4.6,3-7.2c0-1.1-0.2-2-0.7-2.7c-0.5-0.7-1.1-1-2-1
		c-1.5,0-3,0.8-4.5,2.5s-2.7,3.4-3.4,5.2c-2.8,11.9-4.8,18.5-5.9,19.5c-0.2,0.2-0.4,0.2-0.6,0.2c-0.4,0-0.7-0.3-1.1-0.8
		c-0.3-0.5-0.5-0.8-0.4-1c0-0.3,0.1-0.6,0.2-1.1c0.1-0.5,0.4-1.2,0.8-2.3C313.5,251,313.8,250.2,314.1,249.5z"/>
	<path fill="#FFFFFF" d="M335.5,237.6c1.5-3,2.8-6,3.9-9.1c-0.4-0.3-0.5-0.7-0.5-1.2c0-0.9,0.2-1.6,0.7-2.3c0.5-0.7,0.9-1,1.3-1
		c0.4,0,0.7,0.4,0.7,1.2c0,0.1-0.1,0.4-0.2,0.9s-0.2,0.8-0.2,0.8c0,0.4,0.3,0.8,0.8,1.2c0.5,0.4,1.1,0.8,1.7,1.2
		c0.6,0.4,1.2,1,1.7,1.7c0.5,0.8,0.8,1.6,0.8,2.5c0,1.1-0.4,2.5-1.2,4.4c-0.8,1.9-1.2,3.1-1.2,3.7c0,1,0.5,1.4,1.5,1.4
		c1.4,0,3-0.8,4.6-2.4c1.7-1.6,2.9-3.2,3.5-4.8l0.6,0.5c-1,2.2-2.4,4.2-4.3,5.9c-1.9,1.7-3.8,2.6-5.7,2.6c-1.1,0-1.9-0.3-2.6-0.9
		s-0.9-1.4-0.9-2.3c0-1,0.4-2.5,1.3-4.6s1.3-3.6,1.3-4.4c0-0.3,0-0.6-0.1-0.9c-0.1-0.3-0.2-0.5-0.3-0.7c-0.1-0.2-0.2-0.4-0.5-0.6
		l-0.5-0.5c-0.1-0.1-0.3-0.3-0.6-0.5c-0.3-0.2-0.5-0.4-0.6-0.4c-1.6,3.8-3,6.9-4.4,9.2L335.5,237.6z"/>
	<path fill="#FFFFFF" d="M351.6,241c0-2,0.6-4.1,1.8-6.1c1.2-2,2.4-3,3.8-3c0.3,0,0.6,0.1,1,0.2c-0.6,0.5-1.3,1.8-2.2,3.8
		c-0.8,2-1.2,3.6-1.2,4.8c0,1.9,0.6,2.8,1.7,2.8c1.4,0,3.1-1.3,5.1-3.9c-0.9-0.7-1.6-1.7-2.1-2.9c-0.5-1.2-0.7-2.4-0.7-3.7
		c0-1.7,0.4-3.1,1.3-4.3c0.8-1.2,2-1.8,3.4-1.8c2.2,0,3.3,1.2,3.3,3.7s-1.1,5.3-3.2,8.5c0.6,0.3,1.2,0.5,1.8,0.5
		c0.9,0,1.9-0.3,2.9-0.8s1.7-1.4,2.3-2.6l0.6,0.5c-0.6,1.4-1.5,2.4-2.6,3.1s-2.3,1-3.5,1c-0.9,0-1.6-0.2-2.3-0.5c-2.6,3.4-5,5-7.3,5
		c-1.3,0-2.3-0.4-2.9-1.2S351.6,242.3,351.6,241z M360.8,233.1c0,2.2,0.5,3.9,1.6,5.2c1.9-2.8,2.8-5.2,2.8-7.4
		c0-1.8-0.5-2.7-1.4-2.7c-0.7,0-1.4,0.5-2,1.5C361.1,230.6,360.8,231.8,360.8,233.1z"/>
	<path fill="#FFFFFF" d="M360.4,254.8c0-1.2,0.6-2.5,1.7-3.9s2.6-2.6,4.3-3.6l3.1-1.5c1.4-3.4,2.4-7.4,3.2-11.8l-1.3,2.3l-0.9,1.5
		L370,237c0.5-1,1.1-2.3,1.8-4.2c0.7-1.8,1.3-3.2,1.8-4.2c0.5-1,1.1-1.5,1.7-1.5c0.8,0,1.2,0.5,1.2,1.4c0,0.9-0.4,2.9-1.1,6.1
		c-0.8,3.2-1.7,6.4-2.7,9.5c0.1-0.1,0.5-0.3,1.2-0.6c0.6-0.4,1.1-0.6,1.3-0.7l1.1-0.8c0.5-0.4,1-0.7,1.2-1.1l1.2-1.2
		c0.4-0.5,0.9-1,1.2-1.6c0.4-0.6,0.8-1.2,1.2-1.9l0.6,0.3c-0.4,1.1-1,2.1-1.5,2.9c-0.6,0.8-1.3,1.6-2.1,2.3
		c-0.8,0.7-1.4,1.1-1.9,1.5c-0.4,0.3-1.2,0.8-2.2,1.3c-1,0.6-1.6,0.9-1.8,1c-2.8,7.8-5.9,11.7-9.3,11.7c-0.8,0-1.4-0.2-1.8-0.7
		C360.6,256.1,360.4,255.5,360.4,254.8z M361.6,254.4c0,0.8,0.3,1.2,0.8,1.2c0.7,0,1.7-0.7,2.9-2.2c1.2-1.5,2.4-3.5,3.6-6.1
		c-2.3,1.2-4.1,2.4-5.4,3.6C362.3,252.2,361.6,253.4,361.6,254.4z M374.2,221.3c0-0.7,0.4-1.3,1.1-1.8c0.8-0.5,1.5-0.8,2.4-0.8
		c1.1,0,1.6,0.4,1.6,1.3c0,0.7-0.3,1.3-1,1.9c-0.7,0.6-1.4,0.8-2.2,0.8c-0.5,0-1-0.1-1.4-0.4C374.3,222.1,374.2,221.7,374.2,221.3z"
		/>
	<path fill="#FFFFFF" d="M379.4,240.3c0-2.9,1.3-6,4-9.1c2.7-3.1,5.4-4.7,8.2-4.7c2,0,3,1,3,2.9c0,2.3-1.2,4.4-3.7,6.2
		c-2.5,1.8-5.2,2.8-8.1,3.1c-0.1,0.5-0.2,1.1-0.2,1.7c0,2.7,1.3,4,3.8,4c2,0,3.9-0.8,5.9-2.4c2-1.6,3.6-3.6,4.8-6l0.6,0.4
		c-1.3,2.8-3.1,5.1-5.3,6.8s-4.6,2.6-7,2.6c-1.9,0-3.4-0.5-4.4-1.5C379.9,243.3,379.4,241.9,379.4,240.3z M382.9,237.8
		c2.2-0.8,4.4-2,6.4-3.6c2.1-1.6,3.1-3.3,3.1-5.1c0-0.7-0.3-1.1-1-1.1c-1.5,0-3.1,1-4.9,3.1C384.8,233.2,383.6,235.5,382.9,237.8z"
		/>
	<path fill="#FFFFFF" d="M395.8,240.3c0-3.2,1.1-6.1,3.4-8.8c2.3-2.7,4.6-4,7.1-4c1.2,0,2.1,0.3,2.6,1c0.5,0.7,0.8,1.5,0.8,2.5
		c0,1-0.2,1.8-0.6,2.5c-0.4,0.7-1,1-1.8,1c-0.5,0-1-0.2-1.4-0.7c0.5-0.2,0.9-0.7,1.2-1.5c0.4-0.8,0.5-1.5,0.5-2.3
		c0-0.8-0.4-1.2-1.1-1.2c-1.7,0-3.4,1.4-5.2,4.1s-2.7,5.3-2.7,7.7c0,2.7,1.2,4,3.5,4c2,0,3.9-0.8,5.8-2.4c1.9-1.6,3.4-3.7,4.4-6.3
		l0.6,0.5c-1.1,2.9-2.8,5.3-5,7.2c-2.3,1.9-4.6,2.8-6.9,2.8c-1.6,0-2.9-0.5-3.9-1.6C396.3,243.8,395.8,242.3,395.8,240.3z"/>
	<path fill="#FFFFFF" d="M411.4,241.2c0-2.8,0.9-6.6,2.8-11.6c-0.8-0.1-1.3-0.3-1.7-0.4v-0.9c1.2,0.1,1.9,0.2,2.1,0.2
		c1.4-3.6,2.9-6.8,4.5-9.5c1.6-2.7,2.9-4,3.8-4c0.3,0,0.5,0.1,0.7,0.3c0.2,0.2,0.3,0.4,0.3,0.8c0,0.5-0.3,1.3-0.9,2.5
		c-0.6,1.2-1.5,2.8-2.6,4.8c-1.1,2-2.1,3.8-2.8,5.3h1.8c2.7,0,4.9-0.1,6.9-0.3v0.9c-3.4,0.4-6.1,0.6-8.2,0.6c-0.1,0-0.2,0-0.2,0H417
		c-1.8,4-2.6,7.5-2.6,10.4c0,1.4,0.2,2.4,0.6,3c0.4,0.6,1.1,0.9,2.1,0.9c1.6,0,3.2-0.7,4.8-2.2c1.6-1.5,3-3.5,4.3-6l0.6,0.5
		c-1.2,2.8-2.8,5.1-4.8,6.8s-4.1,2.7-6.3,2.7C412.8,246,411.4,244.4,411.4,241.2z"/>
</g>
</svg>
